<?xml version="1.0" standalone="no"?>
<!DOCTYPE svg PUBLIC "-//W3C//DTD SVG 20010904//EN"
 "http://www.w3.org/TR/2001/REC-SVG-20010904/DTD/svg10.dtd">
<svg version="1.0" xmlns="http://www.w3.org/2000/svg"
 width="283.000000pt" height="283.000000pt" viewBox="0 0 283.000000 283.000000"
 preserveAspectRatio="xMidYMid meet">
<metadata>
Created by potrace 1.11, written by Peter Selinger 2001-2013
</metadata>
<g transform="translate(0.000000,283.000000) scale(0.100000,-0.100000)"
fill="#000000" stroke="none">
<path d="M1147 2582 c130 -263 218 -463 301 -682 51 -136 138 -404 146 -450 2
-14 9 -45 16 -68 35 -130 54 -290 53 -442 -2 -389 -199 -549 -543 -441 -60 19
-66 20 -77 4 -7 -9 -12 -17 -10 -18 2 -3 130 -70 282 -150 167 -88 363 -192
527 -279 47 -25 91 -46 96 -46 8 0 60 173 68 225 1 11 9 52 17 90 15 69 19 95
34 218 16 123 9 504 -10 617 -42 248 -105 447 -206 655 -151 309 -316 533
-601 816 -239 237 -235 239 -93 -49z"/>
<path d="M1035 1739 c12 -18 -47 -117 -102 -173 -53 -53 -139 -106 -174 -106
-12 0 -15 -6 -11 -25 2 -14 7 -23 11 -20 18 10 117 -50 170 -103 48 -47 112
-144 111 -167 0 -3 0 -9 0 -14 0 -15 33 -6 38 10 35 113 181 261 271 273 22 4
28 46 6 46 -30 0 -112 49 -162 97 -52 50 -97 119 -108 166 -5 20 -13 27 -32
27 -14 0 -22 -4 -18 -11z"/>
</g>
</svg>
