<?xml version="1.0" standalone="no"?>
<!DOCTYPE svg PUBLIC "-//W3C//DTD SVG 20010904//EN"
 "http://www.w3.org/TR/2001/REC-SVG-20010904/DTD/svg10.dtd">
<svg version="1.0" xmlns="http://www.w3.org/2000/svg"
 width="283.000000pt" height="283.000000pt" viewBox="0 0 283.000000 283.000000"
 preserveAspectRatio="xMidYMid meet">
<metadata>
Created by potrace 1.11, written by Peter Selinger 2001-2013
</metadata>
<g transform="translate(0.000000,283.000000) scale(0.100000,-0.100000)"
fill="#000000" stroke="none">
<path d="M1149 2568 c330 -675 493 -1173 508 -1548 11 -282 -50 -446 -192
-515 -95 -47 -253 -42 -381 11 -31 13 -34 13 -45 -7 -6 -12 -7 -25 -2 -29 4
-5 210 -115 457 -245 314 -166 451 -233 456 -225 13 21 69 260 90 383 40 240
44 556 10 774 -80 499 -304 934 -706 1368 -93 101 -291 285 -314 293 -5 2 49
-115 119 -260z"/>
<path d="M1026 1716 c-15 -80 -154 -220 -247 -247 -31 -10 -39 -17 -39 -36 0
-16 6 -23 20 -23 83 0 270 -186 270 -267 0 -18 6 -23 24 -23 19 0 27 8 37 38
18 55 50 101 111 158 54 52 123 94 153 94 9 0 15 9 15 23 0 19 -11 28 -57 47
-95 39 -195 150 -227 253 -3 10 -15 17 -30 17 -19 0 -25 -6 -30 -34z"/>
</g>
</svg>
