<?xml version="1.0" standalone="no"?>
<!DOCTYPE svg PUBLIC "-//W3C//DTD SVG 20010904//EN"
 "http://www.w3.org/TR/2001/REC-SVG-20010904/DTD/svg10.dtd">
<svg version="1.0" xmlns="http://www.w3.org/2000/svg"
 width="283.000000pt" height="283.000000pt" viewBox="0 0 283.000000 283.000000"
 preserveAspectRatio="xMidYMid meet">
<metadata>
Created by potrace 1.14, written by Peter Selinger 2001-2017
</metadata>
<g transform="translate(0.000000,283.000000) scale(0.100000,-0.100000)"
fill="#000000" stroke="none">
<path d="M1123 2623 c164 -333 259 -550 341 -783 27 -74 52 -144 57 -155 18
-44 80 -277 104 -395 32 -152 44 -381 26 -484 -36 -206 -142 -320 -308 -334
-62 -5 -243 24 -243 39 0 4 -11 9 -25 12 -33 6 -57 -30 -32 -47 27 -19 80 -48
137 -76 30 -15 197 -103 370 -195 415 -221 391 -209 400 -195 7 12 63 230 75
295 65 341 65 685 0 997 -68 322 -226 662 -440 944 -44 59 -84 113 -90 121 -5
8 -34 40 -63 71 -29 31 -70 77 -90 101 -42 51 -301 291 -314 291 -4 0 38 -93
95 -207z"/>
<path d="M1025 1740 c-3 -5 -2 -10 4 -10 20 0 -76 -159 -96 -160 -7 0 -13 -4
-13 -9 0 -14 -116 -89 -150 -96 -23 -5 -30 -12 -30 -31 0 -17 5 -24 20 -24 83
0 270 -186 270 -267 0 -18 6 -23 24 -23 19 0 27 8 37 38 19 57 51 103 114 160
58 53 121 92 150 92 9 0 15 9 15 23 0 18 -13 28 -61 50 -100 46 -219 180 -219
247 0 16 -6 20 -29 20 -17 0 -33 -4 -36 -10z"/>
</g>
</svg>
